<?xml version="1.0" encoding="UTF-8" standalone="no"?>
<!DOCTYPE svg PUBLIC "-//W3C//DTD SVG 1.1//EN"
 "http://www.w3.org/Graphics/SVG/1.1/DTD/svg11.dtd">
<!-- Generated by graphviz version 2.34.0 (20140110.0949)
 -->
<!-- Title: PROV Pages: 1 -->
<svg width="403pt" height="116pt"
 viewBox="0.00 0.00 403.00 116.00" xmlns="http://www.w3.org/2000/svg" xmlns:xlink="http://www.w3.org/1999/xlink">
<g id="graph0" class="graph" transform="scale(1 1) rotate(0) translate(4 112)">
<title>PROV</title>
<polygon fill="white" stroke="white" points="-4,4 -4,-112 399,-112 399,4 -4,4"/>
<!-- nhttp___www_provbook_orga_little_provenance_goes_a_long_way -->
<g id="node1" class="node"><title>nhttp___www_provbook_orga_little_provenance_goes_a_long_way</title>
<g id="a_node1"><a xlink:href="http://www.provbook.orga-little-provenance-goes-a-long-way" xlink:title="a&#45;little&#45;provenance&#45;goes&#45;a&#45;long&#45;way">
<ellipse fill="#fffc87" stroke="#808080" cx="256" cy="-18" rx="139.175" ry="18"/>
<text text-anchor="middle" x="256" y="-14.3" font-family="Times,serif" font-size="14.00">a&#45;little&#45;provenance&#45;goes&#45;a&#45;long&#45;way</text>
</a>
</g>
</g>
<!-- nhttp___www_cs_rpi_edu__hendler_LittleSemanticsWeb_html -->
<g id="node2" class="node"><title>nhttp___www_cs_rpi_edu__hendler_LittleSemanticsWeb_html</title>
<g id="a_node2"><a xlink:href="http://www.cs.rpi.edu/~hendler/LittleSemanticsWeb.html" xlink:title="LittleSemanticsWeb.html">
<ellipse fill="#fffc87" stroke="#808080" cx="102" cy="-90" rx="102.882" ry="18"/>
<text text-anchor="middle" x="102" y="-86.3" font-family="Times,serif" font-size="14.00">LittleSemanticsWeb.html</text>
</a>
</g>
</g>
<!-- nhttp___www_provbook_orga_little_provenance_goes_a_long_way&#45;&gt;nhttp___www_cs_rpi_edu__hendler_LittleSemanticsWeb_html -->
<g id="edge3" class="edge"><title>nhttp___www_provbook_orga_little_provenance_goes_a_long_way&#45;&gt;nhttp___www_cs_rpi_edu__hendler_LittleSemanticsWeb_html</title>
<path fill="none" stroke="black" d="M219.894,-35.4119C197.938,-45.392 169.732,-58.2128 146.415,-68.8116"/>
<polygon fill="black" stroke="black" points="144.74,-65.7283 137.084,-73.0526 147.636,-72.1008 144.74,-65.7283"/>
<text text-anchor="middle" x="218.442" y="-48.4414" font-family="Times,serif" font-size="8.00">der</text>
</g>
<!-- nhttp___www_provbook_orgPaul -->
<g id="node3" class="node"><title>nhttp___www_provbook_orgPaul</title>
<g id="a_node3"><a xlink:href="http://www.provbook.orgPaul" xlink:title="Paul">
<polygon fill="#fdb266" stroke="black" points="288.877,-95.5623 256,-108 223.123,-95.5623 223.154,-75.4377 288.846,-75.4377 288.877,-95.5623"/>
<text text-anchor="middle" x="256" y="-86.3" font-family="Times,serif" font-size="14.00">Paul</text>
</a>
</g>
</g>
<!-- nhttp___www_provbook_orga_little_provenance_goes_a_long_way&#45;&gt;nhttp___www_provbook_orgPaul -->
<g id="edge1" class="edge"><title>nhttp___www_provbook_orga_little_provenance_goes_a_long_way&#45;&gt;nhttp___www_provbook_orgPaul</title>
<path fill="none" stroke="black" d="M256,-36.3034C256,-45.0105 256,-55.7005 256,-65.1713"/>
<polygon fill="black" stroke="black" points="252.5,-65.1754 256,-75.1755 259.5,-65.1755 252.5,-65.1754"/>
<text text-anchor="middle" x="268.99" y="-41.9034" font-family="Times,serif" font-size="8.00">att</text>
</g>
<!-- nhttp___www_provbook_orgLuc -->
<g id="node4" class="node"><title>nhttp___www_provbook_orgLuc</title>
<g id="a_node4"><a xlink:href="http://www.provbook.orgLuc" xlink:title="Luc">
<polygon fill="#fdb266" stroke="black" points="367.556,-95.5623 337,-108 306.444,-95.5623 306.472,-75.4377 367.528,-75.4377 367.556,-95.5623"/>
<text text-anchor="middle" x="337" y="-86.3" font-family="Times,serif" font-size="14.00">Luc</text>
</a>
</g>
</g>
<!-- nhttp___www_provbook_orga_little_provenance_goes_a_long_way&#45;&gt;nhttp___www_provbook_orgLuc -->
<g id="edge2" class="edge"><title>nhttp___www_provbook_orga_little_provenance_goes_a_long_way&#45;&gt;nhttp___www_provbook_orgLuc</title>
<path fill="none" stroke="black" d="M275.608,-35.945C286.944,-45.742 301.288,-58.1379 313.26,-68.4837"/>
<polygon fill="black" stroke="black" points="311.248,-71.3711 321.103,-75.2616 315.825,-66.0748 311.248,-71.3711"/>
<text text-anchor="middle" x="289.776" y="-29.1203" font-family="Times,serif" font-size="8.00">att</text>
</g>
</g>
</svg>
